<svg width="68" height="68" viewBox="0 0 68 68" fill="none" xmlns="http://www.w3.org/2000/svg">
<path d="M0.466675 33.7333C0.466675 52.3637 15.5696 67.4667 34.2 67.4667C52.8304 67.4667 67.9333 52.3637 67.9333 33.7333C67.9333 15.1029 52.8304 0 34.2 0C15.5696 0 0.466675 15.1029 0.466675 33.7333Z" fill="#B180F6"/>
<path d="M51.0667 23.1917C49.8017 23.8242 48.5367 24.035 47.0609 24.2458C48.5367 23.4025 49.5909 22.1375 50.0125 20.4508C48.7475 21.2942 47.2717 21.7158 45.585 22.1375C44.32 20.8725 42.4225 20.0292 40.525 20.0292C36.0975 20.0292 32.7242 24.2458 33.7784 28.4625C28.0859 28.2517 23.0259 25.5108 19.4417 21.2942C17.5442 24.4567 18.5984 28.4625 21.55 30.5708C20.4959 30.5708 19.4417 30.1492 18.3875 29.7275C18.3875 32.89 20.7067 35.8417 23.8692 36.685C22.815 36.8958 21.7609 37.1067 20.7067 36.8958C21.55 39.6367 24.08 41.745 27.2425 41.745C24.7125 43.6425 20.9175 44.6967 17.3334 44.275C20.4959 46.1725 24.08 47.4375 27.875 47.4375C40.7359 47.4375 47.9042 36.685 47.4825 26.7758C48.9584 25.9325 50.2234 24.6675 51.0667 23.1917Z" fill="#F8F8F8"/>
</svg>
