<svg width="68" height="68" viewBox="0 0 68 68" fill="none" xmlns="http://www.w3.org/2000/svg">
<path d="M0 33.7333C0 52.3637 15.1029 67.4667 33.7333 67.4667C52.3637 67.4667 67.4667 52.3637 67.4667 33.7333C67.4667 15.1029 52.3637 0 33.7333 0C15.1029 0 0 15.1029 0 33.7333Z" fill="#B180F6"/>
<path fill-rule="evenodd" clip-rule="evenodd" d="M46.6 20.3188C43.225 16.85 38.725 15 34 15C24.1 15 16 23.325 16 33.5C16 36.7375 16.9 39.975 18.475 42.75L16 52L25.45 49.4562C28.15 50.8437 31.075 51.7687 34 51.7687C43.9 51.7687 52 43.4437 52 33.2687C52 28.4125 49.975 23.7875 46.6 20.3188ZM34 48.7625C31.3 48.7625 28.6 48.0688 26.35 46.6813L25.9 46.45L20.275 48.0687L21.85 42.5187L21.4 41.825C19.825 39.2813 19.15 36.5063 19.15 33.7313C19.15 25.4063 25.9 18.4688 34 18.4688C38.05 18.4688 41.65 20.0875 44.575 22.8625C47.5 25.8687 48.85 29.5688 48.85 33.7313C48.85 41.825 42.325 48.7625 34 48.7625ZM42.1 37.2C41.65 36.9688 39.4 35.8125 38.95 35.8125C38.5 35.5812 38.275 35.5813 38.05 36.0438C37.825 36.5063 36.925 37.4312 36.7 37.8937C36.475 38.125 36.25 38.125 35.8 38.125C35.35 37.8937 34 37.4312 32.2 35.8125C30.85 34.6562 29.95 33.0375 29.725 32.575C29.5 32.1125 29.725 31.8812 29.95 31.65C30.175 31.4187 30.4 31.1875 30.625 30.9562C30.85 30.725 30.85 30.4938 31.075 30.2625C31.3 30.0313 31.075 29.8 31.075 29.5688C31.075 29.3375 30.175 27.025 29.725 26.1C29.5 25.4063 29.05 25.4062 28.825 25.4062C28.6 25.4062 28.375 25.4062 27.925 25.4062C27.7 25.4062 27.25 25.4062 26.8 25.8687C26.35 26.3312 25.225 27.4875 25.225 29.8C25.225 32.1125 26.8 34.1937 27.025 34.6562C27.25 34.8875 30.175 39.7437 34.675 41.5938C38.5 43.2125 39.175 42.75 40.075 42.75C40.975 42.75 42.775 41.5938 43 40.6688C43.45 39.5125 43.45 38.5875 43.225 38.5875C43 37.4313 42.55 37.4313 42.1 37.2Z" fill="#F8F8F8"/>
</svg>
