<svg width="69" height="68" viewBox="0 0 69 68" fill="none" xmlns="http://www.w3.org/2000/svg">
<path d="M0.93335 33.7333C0.93335 52.3637 16.0363 67.4667 34.6667 67.4667C53.2971 67.4667 68.4 52.3637 68.4 33.7333C68.4 15.1029 53.2971 0 34.6667 0C16.0363 0 0.93335 15.1029 0.93335 33.7333Z" fill="#B180F6"/>
<path d="M34.6669 19.3969C39.3052 19.3969 39.9377 19.3969 41.8352 19.3969C43.5219 19.3969 44.3652 19.8185 44.9977 20.0294C45.8411 20.451 46.4736 20.6619 47.1061 21.2944C47.7386 21.9269 48.1602 22.5594 48.3711 23.4027C48.5819 24.0352 48.7927 24.8785 49.0036 26.5652C49.0036 28.4627 49.0036 28.8844 49.0036 33.7335C49.0036 38.5827 49.0036 39.0044 49.0036 40.9019C49.0036 42.5885 48.5819 43.4319 48.3711 44.0644C47.9494 44.9077 47.7386 45.5402 47.1061 46.1727C46.4736 46.8052 45.8411 47.2269 44.9977 47.4377C44.3652 47.6485 43.5219 47.8594 41.8352 48.0702C39.9377 48.0702 39.5161 48.0702 34.6669 48.0702C29.8177 48.0702 29.3961 48.0702 27.4986 48.0702C25.8119 48.0702 24.9686 47.6485 24.3361 47.4377C23.4927 47.016 22.8602 46.8052 22.2277 46.1727C21.5952 45.5402 21.1736 44.9077 20.9627 44.0644C20.7519 43.4319 20.5411 42.5885 20.3302 40.9019C20.3302 39.0044 20.3302 38.5827 20.3302 33.7335C20.3302 28.8844 20.3302 28.4627 20.3302 26.5652C20.3302 24.8785 20.7519 24.0352 20.9627 23.4027C21.3844 22.5594 21.5952 21.9269 22.2277 21.2944C22.8602 20.6619 23.4927 20.2402 24.3361 20.0294C24.9686 19.8185 25.8119 19.6077 27.4986 19.3969C29.3961 19.3969 30.0286 19.3969 34.6669 19.3969ZM34.6669 16.2344C29.8177 16.2344 29.3961 16.2344 27.4986 16.2344C25.6011 16.2344 24.3361 16.656 23.2819 17.0777C22.2277 17.4994 21.1736 18.1319 20.1194 19.186C19.0652 20.2402 18.6436 21.0835 18.0111 22.3485C17.5894 23.4027 17.3786 24.6677 17.1677 26.5652C17.1677 28.4627 17.1677 29.0952 17.1677 33.7335C17.1677 38.5827 17.1677 39.0044 17.1677 40.9019C17.1677 42.7994 17.5894 44.0644 18.0111 45.1185C18.4327 46.1727 19.0652 47.2269 20.1194 48.281C21.1736 49.3352 22.0169 49.7569 23.2819 50.3894C24.3361 50.811 25.6011 51.0219 27.4986 51.2327C29.3961 51.2327 30.0286 51.2327 34.6669 51.2327C39.3052 51.2327 39.9377 51.2327 41.8352 51.2327C43.7327 51.2327 44.9977 50.811 46.0519 50.3894C47.1061 49.9677 48.1602 49.3352 49.2144 48.281C50.2686 47.2269 50.6902 46.3835 51.3227 45.1185C51.7444 44.0644 51.9552 42.7994 52.1661 40.9019C52.1661 39.0044 52.1661 38.3719 52.1661 33.7335C52.1661 29.0952 52.1661 28.4627 52.1661 26.5652C52.1661 24.6677 51.7444 23.4027 51.3227 22.3485C50.9011 21.2944 50.2686 20.2402 49.2144 19.186C48.1602 18.1319 47.3169 17.7102 46.0519 17.0777C44.9977 16.656 43.7327 16.4452 41.8352 16.2344C39.9377 16.2344 39.5161 16.2344 34.6669 16.2344Z" fill="#F8F8F8"/>
<path d="M34.6669 24.6677C29.6069 24.6677 25.6011 28.6735 25.6011 33.7335C25.6011 38.7935 29.6069 42.7994 34.6669 42.7994C39.7269 42.7994 43.7327 38.7935 43.7327 33.7335C43.7327 28.6735 39.7269 24.6677 34.6669 24.6677ZM34.6669 39.6369C31.5044 39.6369 28.7636 37.1069 28.7636 33.7335C28.7636 30.571 31.2936 27.8302 34.6669 27.8302C37.8294 27.8302 40.5702 30.3602 40.5702 33.7335C40.5702 36.896 37.8294 39.6369 34.6669 39.6369Z" fill="#F8F8F8"/>
<path d="M43.9436 26.5652C45.108 26.5652 46.0519 25.6213 46.0519 24.4569C46.0519 23.2925 45.108 22.3485 43.9436 22.3485C42.7792 22.3485 41.8352 23.2925 41.8352 24.4569C41.8352 25.6213 42.7792 26.5652 43.9436 26.5652Z" fill="#F8F8F8"/>
</svg>
