<svg width="752" height="390" viewBox="0 0 752 390" fill="none" xmlns="http://www.w3.org/2000/svg">
<path d="M142.616 247.349L144.117 245.976L142.718 244.499L88.2905 187.025L86.838 185.491L85.3858 187.025L30.9875 244.499L29.5872 245.978L31.0922 247.351L40.847 256.25L42.2977 257.573L43.6475 256.147L78.1887 219.649V241.762C78.1887 322.166 144.795 387.52 226.569 387.52C308.344 387.52 374.92 322.165 374.92 241.762V189.487V187.487H372.92H359.621H357.621V189.487V241.762C357.621 312.694 298.85 370.451 226.569 370.451C154.259 370.451 95.488 312.693 95.488 241.762V219.622L130.058 256.176L131.41 257.606L132.861 256.277L142.616 247.349Z" fill="white" stroke="white" stroke-width="4"/>
<path d="M40.7106 1.79199C47.2386 0.639992 54.8226 0.0639906 63.4626 0.0639906C85.5426 0.0639906 103.399 7.16799 117.031 21.376C129.127 34.24 135.175 50.176 135.175 69.184V104.32C135.175 113.344 131.911 120.928 125.383 127.072C119.431 133.024 112.327 136 104.071 136H11.6226V106.624H92.8386C97.6386 106.624 100.039 104.224 100.039 99.424V72.64C100.039 59.392 96.0066 48.736 87.9426 40.672C80.4546 33.184 69.6066 29.152 55.3986 28.576C48.8706 28.576 43.9746 28.96 40.7106 29.728V1.79199ZM257.955 134.848C249.699 137.152 241.635 138.304 233.763 138.304C213.411 138.304 196.899 130.432 184.227 114.688C173.859 101.44 168.675 85.792 168.675 67.744C168.675 47.968 174.531 31.936 186.243 19.648C198.339 6.59199 214.755 0.0639906 235.491 0.0639906C250.851 0.0639906 263.715 3.99999 274.083 11.872C287.139 21.28 293.667 35.104 293.667 53.344V129.088C293.667 153.856 285.795 172.864 270.051 186.112C261.027 193.792 249.795 199.168 236.355 202.24C229.635 203.776 222.147 204.544 213.891 204.544C211.779 204.544 208.419 204.352 203.811 203.968L189.699 186.4V174.016C195.843 174.976 201.891 175.456 207.843 175.456C238.755 175.456 255.459 161.92 257.955 134.848ZM258.531 53.344C258.531 45.088 255.747 38.752 250.179 34.336C246.339 31.072 241.443 29.44 235.491 29.44C225.507 29.44 217.635 32.896 211.875 39.808C206.307 46.72 203.523 56.224 203.523 68.32C203.523 80.8 206.691 90.688 213.027 97.984C219.555 105.088 228.387 108.64 239.523 108.64C245.667 108.64 252.003 107.488 258.531 105.184V53.344ZM349.804 1.79199C356.332 0.639992 363.916 0.0639906 372.556 0.0639906C394.636 0.0639906 412.492 7.16799 426.124 21.376C438.22 34.24 444.268 50.176 444.268 69.184V104.32C444.268 113.344 441.004 120.928 434.476 127.072C428.524 133.024 421.42 136 413.164 136H320.716V106.624H401.932C406.732 106.624 409.132 104.224 409.132 99.424V72.64C409.132 59.392 405.1 48.736 397.036 40.672C389.548 33.184 378.7 29.152 364.492 28.576C357.964 28.576 353.068 28.96 349.804 29.728V1.79199ZM548.934 3.52V106.624H563.622V136H548.646C547.11 159.04 537.99 176.704 521.286 188.992C507.462 199.168 490.47 204.256 470.31 204.256C466.854 204.256 463.11 204.16 459.078 203.968L444.966 186.4V174.016C451.11 174.976 457.062 175.456 462.822 175.456C496.806 175.456 513.798 158.944 513.798 125.92V3.52H548.934ZM613.297 53.344C613.297 35.104 619.633 21.28 632.305 11.872C642.289 4.19199 655.921 0.351995 673.201 0.351995C690.097 0.351995 704.401 5.34399 716.113 15.328C730.897 28 738.289 45.952 738.289 69.184C738.289 91.072 732.433 109.216 720.721 123.616C709.393 137.632 694.705 144.64 676.657 144.64C660.721 144.64 648.145 138.688 638.929 126.784C632.785 132.928 625.297 136 616.465 136H561.457V106.624H605.809C607.921 106.624 609.745 105.856 611.281 104.32C612.625 102.976 613.297 101.344 613.297 99.424V53.344ZM648.145 103.456C655.249 111.136 663.409 114.976 672.625 114.976C681.649 114.976 689.041 111.04 694.801 103.168C700.561 95.104 703.441 84.736 703.441 72.064C703.441 58.24 700.273 47.392 693.937 39.52C688.177 32.8 680.689 29.44 671.473 29.44C664.561 29.44 659.089 31.648 655.057 36.064C650.449 40.288 648.145 46.048 648.145 53.344V103.456Z" fill="white"/>
</svg>
