<svg width="69" height="68" viewBox="0 0 69 68" fill="none" xmlns="http://www.w3.org/2000/svg">
<path d="M0.866699 33.7333C0.866699 52.3637 15.9696 67.4667 34.6 67.4667C53.2304 67.4667 68.3334 52.3637 68.3334 33.7333C68.3334 15.1029 53.2304 0 34.6 0C15.9696 0 0.866699 15.1029 0.866699 33.7333Z" fill="#B180F6"/>
<path d="M50.3997 22.5667C46.306 22.5667 42.9756 19.2362 42.9756 15.1426C42.9756 14.5115 42.4638 14 41.833 14H35.7137C35.0826 14 34.5711 14.5115 34.5711 15.1426V40.2311C34.5711 42.6376 32.6133 44.5955 30.2064 44.5955C27.7999 44.5955 25.842 42.6376 25.842 40.2311C25.842 37.8242 27.7999 35.8664 30.2064 35.8664C30.8375 35.8664 31.349 35.3549 31.349 34.7238V28.6045C31.349 27.9737 30.8375 27.4619 30.2064 27.4619C23.1656 27.4619 17.4375 33.1903 17.4375 40.2311C17.4375 47.2719 23.1656 53 30.2064 53C37.2472 53 42.9756 47.2719 42.9756 40.2311V29.1258C45.2498 30.3383 47.7801 30.9712 50.3997 30.9712C51.0308 30.9712 51.5423 30.4597 51.5423 29.8286V23.7092C51.5423 23.0784 51.0308 22.5667 50.3997 22.5667ZM49.2571 28.6387C46.8178 28.4358 44.5014 27.5836 42.5001 26.1441C42.1523 25.8935 41.6935 25.859 41.3117 26.0548C40.9303 26.25 40.6905 26.6427 40.6905 27.0715V40.2311C40.6905 46.0118 35.9871 50.7148 30.2064 50.7148C24.4257 50.7148 19.7227 46.0118 19.7227 40.2311C19.7227 34.8363 23.8187 30.3799 29.0638 29.8089V33.6794C25.9396 34.2227 23.5568 36.9536 23.5568 40.2311C23.5568 43.8978 26.5397 46.881 30.2064 46.881C33.8734 46.881 36.8563 43.8978 36.8563 40.2311V16.2852H40.7571C41.2805 20.7275 44.8147 24.2618 49.2571 24.7852V28.6387Z" fill="white"/>
</svg>
